<svg x="0" y="0" width="700" height="350" viewBox="0 0 1400 700" xmlns="http://www.w3.org/2000/svg" xmlns:xlink="http://www.w3.org/1999/xlink" xmlns:fi="http://pattern.flaticon.com/"><rect x="0px" y="0px" width="100%" height="100%" opacity="1" fill="#1c1e24"/><defs><g transform="matrix(0.7323606014251709 -0.12626907229423523 0.12626907229423523 0.7323606014251709 208.5238494873047 130.60507202148438)" id="L1_0"><path d="m12 36v10.586l4-4v-6.586z"/><path d="m6 52.586 4-4v-12.586h-4z"/><path d="m18 36v4.586l4-4v-.586z"/><path d="m34 54v-18h-.586l-3.414 3.414v14.586z"/><path d="m12 10h4v18h-4z"/><path d="m18 10h4v18h-4z"/><path d="m6 10h4v18h-4z"/><path d="m22 54v-6.586l-4 4v2.586z"/><path d="m54 36h4v18h-4z"/><path d="m4 34h56v-4h-56zm52-3h2v2h-2zm-25 0h2v2h-2zm-25 0h2v2h-2z"/><path d="m48 36h4v18h-4z"/><path d="m28 54v-12.586l-4 4v8.586z"/><path d="m12.586 54 18-18h-5.172l-18 18z"/><path d="m42 36h4v18h-4z"/><path d="m36 36h4v18h-4z"/><path d="m16 53.414-.586.586h.586z"/><path d="m46 28v-4.586l-4 4v.586z"/><path d="m24 10h4v18h-4z"/><path d="m4 60h56v-4h-56zm52-3h2v2h-2zm-50 0h2v2h-2z"/><path d="m4 4v4h56v-4zm4 3h-2v-2h2zm25 0h-2v-2h2zm25 0h-2v-2h2z"/><path d="m52 28v-10.586l-4 4v6.586z"/><path d="m30 28h.586l3.414-3.414v-14.586h-4z"/><path d="m38.586 28 18-18h-5.172l-18 18z"/><path d="m58 28v-16.586l-4 4v12.586z"/><path d="m36 10v12.586l4-4v-8.586z"/><path d="m48 10.586.586-.586h-.586z"/><path d="m42 10v6.586l4-4v-2.586z"/></g><path d="M226.764,375.35c-28.249,0-51.078,22.91-51.078,51.16c0,28.166,22.829,51.078,51.078,51.078s51.078-22.912,51.078-51.078    C277.841,398.26,255.013,375.35,226.764,375.35z M226.764,452.049c-14.125,0-25.54-11.498-25.54-25.541    c0-14.123,11.415-25.539,25.54-25.539c14.124,0,25.539,11.416,25.539,25.539C252.302,440.551,240.888,452.049,226.764,452.049z     M612,337.561v54.541c0,13.605-11.029,24.635-24.636,24.635h-26.36c-4.763-32.684-32.929-57.812-66.927-57.812    c-33.914,0-62.082,25.129-66.845,57.812H293.625c-4.763-32.684-32.93-57.812-66.845-57.812c-33.915,0-62.082,25.129-66.844,57.812    h-33.012c-13.606,0-24.635-11.029-24.635-24.635v-54.541H612L612,337.561z M494.143,375.35c-28.249,0-51.16,22.91-51.16,51.16    c0,28.166,22.912,51.078,51.16,51.078c28.166,0,51.077-22.912,51.077-51.078C545.22,398.26,522.309,375.35,494.143,375.35z     M494.143,452.049c-14.125,0-25.539-11.498-25.539-25.541c0-14.123,11.414-25.539,25.539-25.539    c14.042,0,25.539,11.416,25.539,25.539C519.682,440.551,508.185,452.049,494.143,452.049z M602.293,282.637l-96.817-95.751    c-6.159-6.077-14.453-9.526-23.076-9.526h-48.86v-18.313c0-13.631-11.004-24.635-24.635-24.635H126.907    c-13.55,0-24.635,11.005-24.635,24.635v3.86L2.3,174.429l177.146,23.068L0,215.323l178.814,25.423L0,256.25l102.278,19.29    l-0.007,48.403h509.712v-17.985C611.983,297.171,608.452,288.796,602.293,282.637z M560.084,285.839h-93.697    c-2.135,0-3.86-1.724-3.86-3.859v-72.347c0-2.135,1.725-3.86,3.86-3.86h17.82c0.985,0,1.971,0.411,2.71,1.068l75.796,72.347    C565.257,281.569,563.532,285.839,560.084,285.839z" transform="matrix(0.09803921729326248 0 0 0.09803921729326248 214 241)" id="L1_1"/><path d="M257.938,336.072c0,17.355-14.068,31.424-31.423,31.424c-17.354,0-31.422-14.068-31.422-31.424   c0-17.354,14.068-31.423,31.422-31.423C243.87,304.65,257.938,318.719,257.938,336.072z M385.485,304.65   c-17.354,0-31.423,14.068-31.423,31.424c0,17.354,14.069,31.422,31.423,31.422c17.354,0,31.424-14.068,31.424-31.422   C416.908,318.719,402.84,304.65,385.485,304.65z M612,318.557v59.719c0,29.982-24.305,54.287-54.288,54.287h-39.394   C479.283,540.947,379.604,606.412,306,606.412s-173.283-65.465-212.318-173.85H54.288C24.305,432.562,0,408.258,0,378.275v-59.719   c0-20.631,11.511-38.573,28.46-47.758c0.569-84.785,25.28-151.002,73.553-196.779C149.895,28.613,218.526,5.588,306,5.588   c87.474,0,156.105,23.025,203.987,68.43c48.272,45.777,72.982,111.995,73.553,196.779C600.489,279.983,612,297.925,612,318.557z    M497.099,336.271c0-13.969-0.715-27.094-1.771-39.812c-24.093-22.043-67.832-38.769-123.033-44.984   c7.248,8.15,13.509,18.871,17.306,32.983c-33.812-26.637-100.181-20.297-150.382-79.905c-2.878-3.329-5.367-6.51-7.519-9.417   c-0.025-0.035-0.053-0.062-0.078-0.096l0.006,0.002c-8.931-12.078-11.976-19.262-12.146-11.31   c-1.473,68.513-50.034,121.925-103.958,129.46c-0.341,7.535-0.62,15.143-0.62,23.08c0,28.959,4.729,55.352,12.769,79.137   c30.29,36.537,80.312,46.854,124.586,49.59c8.219-13.076,26.66-22.205,48.136-22.205c29.117,0,52.72,16.754,52.72,37.424   c0,20.668-23.604,37.422-52.72,37.422c-22.397,0-41.483-9.93-49.122-23.912c-30.943-1.799-64.959-7.074-95.276-21.391   C198.631,535.18,264.725,568.41,306,568.41C370.859,568.41,497.099,486.475,497.099,336.271z M550.855,264.269   C547.4,116.318,462.951,38.162,306,38.162S64.601,116.318,61.145,264.269h20.887c7.637-49.867,23.778-90.878,48.285-122.412   C169.37,91.609,228.478,66.13,306,66.13c77.522,0,136.63,25.479,175.685,75.727c24.505,31.533,40.647,72.545,48.284,122.412   H550.855L550.855,264.269z" transform="matrix(0.06529603898525238 0.03731201961636543 -0.03731201961636543 0.06529603898525238 113.4368896484375 86.6019287109375)" id="L1_2"/><path d="M612,295.672c0,140.552-103.671,257.344-238.56,277.937c1.138-6.238,1.457-12.698,0.691-19.244   c0,0-0.806-6.888-1.86-15.903c47.891-8.159,91.129-30.134,125.4-61.737c-2.057-1.711-4.106-3.93-6.126-6.876   c-9.102-13.281,2.8-26.459,2.8-38.073c0-11.392-22.967-10.455-23.808-18c-2.902-26.13,16.035-26.486,26.131-36.582   s-9.979-33.049-22.946-31.568c-13.055,1.394-49.802-6.029-46.444-34.144c4.091-34.243-43.627-31.222-50.46-47.205   c-9.961-23.297,6.598-51.873,28.196-58.365c30.592-9.195,60.729-34.152,58.375-61.934c-2.667-31.465-16.909-59.842-40.366-76.699   c-24.41-9.889-50.731-16.004-78.269-17.547c-24.577,0.972-46.185,6.434-45.199,17.686c2.417,27.574,80.828,34.736,67.67,60.512   c-6.86,13.437-58.344,32.402-48.729,52.4c6.254,13.005,21.645,1.859,15.899,26.826c-2.644,11.488-12.717,33.073-28.208,34.466   c-15.841,1.479-29.032-40.487-72.15-41.863c-20.384-0.652-49.101,31.804-24.717,54.83c14.766,13.944,42.475-16.759,50.653,7.225   c5.763,16.901-0.776,52.405,26.121,67.243c9.805,5.409,24.836,10.124,39.702,17.678c-22.065,4.506-49.177,12.914-81.192,25.246   l-26.974-7.117c11.292-9.4,29.639-16.017,25.023-36.557c-6.781-30.177-59.178-18.796-95.301-54.918   c-11.082-11.08-34.719-47.873-34.622-92.077c-18.006,34.202-28.254,73.098-28.254,114.361c0,12.701,0.969,25.181,2.832,37.37   c-0.425-0.007-0.845-0.081-1.269-0.081c-11.376,0-22.533,2.39-32.873,6.909c-2.284-14.405-3.503-29.159-3.503-44.197   c0-155.035,126.133-281.172,281.167-281.172C485.867,14.5,612,140.637,612,295.672z M401.089,377.624l-68.67,31.565l1.065-14.963   l44.486-20.082c-6.345-0.454-12.919-0.627-19.483-0.627c-24.579,0-66.106,12.442-112.036,30.673L99.144,365.335   c-13.766-3.632-28.422-1.395-40.479,6.18l-7.243,4.55c-7.071,4.442-7.146,14.722-0.141,19.268l88.549,57.448   c-21.153,10.818-41.222,21.805-58.914,32.298l-45.438-24.056c-7.422-3.929-16.197-4.395-23.992-1.273l-4.301,1.724   c-6.414,2.567-9.101,10.195-5.711,16.216l25.031,44.472l0.011-0.004c-9.444,8.125-14.826,14.863-14.826,19.526   c0,13.956,17.174,17.444,32.312,17.444c27,0,383.567-81.641,383.567-155.605C427.567,388.875,417.549,381.549,401.089,377.624z    M250.751,522.033l78.463-27.64c3.456-1.218,7.149,1.086,7.575,4.726l6.879,58.815c1.719,14.697-6.186,28.84-19.604,35.078   l-7.359,3.42c-4.596,2.136-10.048,0.991-13.397-2.812L248.36,531.2C245.685,528.16,246.931,523.379,250.751,522.033z" transform="matrix(0.06383141875267029 -0.021277135238051414 0.021277135238051414 0.06383141875267029 83.94541931152344 317.9966735839844)" id="L1_3"/><path d="M201.582,398.487c0-57.43,74.473-66.617,74.473-98.255c0-13.901-10.759-22.212-24.221-22.212   c-18.613,0-28.715,18.851-28.715,18.851l-21.536-14.357c0,0,14.576-31.857,52.717-31.857c28.039,0,51.822,17.042,51.822,47.109   c0,51.147-71.331,59.896-72.007,89.962h74.473v24.897H202.934C202.258,407.475,201.582,402.981,201.582,398.487z M324.809,353.845   l68.646-100.503h34.322v94.219h20.642v24.021h-20.642v41.045h-28.495v-41.045h-74.473V353.845L324.809,353.845z M399.281,347.561   v-49.337c0-7.854,1.132-16.604,1.132-16.604h-0.457c0,0-3.58,8.512-7.854,14.576l-36.789,50.927v0.438H399.281L399.281,347.561z    M539.777,339.118l-5.543,19.855C502.727,471.835,387.76,543.053,274.033,514.826C164.799,487.716,96.911,381.87,113.235,274.033   l32.914,9.188c7.629,2.13,14.704-4.798,12.733-12.471L123.088,131.37c-1.97-7.672-11.506-10.334-17.166-4.792L3.097,227.26   c-5.66,5.542-3.198,15.134,4.433,17.264l35.826,10.001C16.62,400.396,106.611,545.678,253.463,583.919   c152.489,39.71,308.024-54.678,350.394-206.45l5.299-18.982c1.528-5.474-1.67-11.149-7.144-12.678l-49.557-13.835   C546.981,330.445,541.305,333.645,539.777,339.118z M598.336,252.268l-51.97,6.752c-5.636,0.732-9.61,5.894-8.879,11.53   l2.048,15.762c0.732,5.636,5.895,9.611,11.53,8.878l51.97-6.752c5.636-0.732,9.61-5.894,8.879-11.53l-2.049-15.762   C609.134,255.511,603.972,251.536,598.336,252.268z M558.328,154.064l-45.655,25.729c-4.951,2.79-6.703,9.065-3.913,14.017   l7.803,13.847c2.79,4.951,9.065,6.703,14.017,3.913l45.655-25.729c4.951-2.79,6.703-9.065,3.913-14.017l-7.803-13.847   C569.555,153.026,563.279,151.274,558.328,154.064z M484.447,77.998l-32.694,40.958c-3.546,4.441-2.818,10.917,1.623,14.461   l12.423,9.916c4.441,3.546,10.916,2.819,14.461-1.623l32.694-40.958c3.546-4.442,2.818-10.917-1.623-14.462l-12.423-9.916   C494.467,72.83,487.992,73.556,484.447,77.998z M387.45,35.147L372.48,85.37c-1.624,5.446,1.476,11.178,6.921,12.801l15.233,4.54   c5.445,1.624,11.177-1.476,12.801-6.921l14.97-50.223c1.623-5.446-1.476-11.177-6.922-12.801l-15.232-4.54   C394.805,26.602,389.073,29.701,387.45,35.147z M281.464,31.752l4.933,52.174c0.535,5.658,5.556,9.811,11.213,9.276l15.824-1.497   c5.658-0.535,9.811-5.555,9.276-11.213l-4.934-52.174c-0.535-5.658-5.556-9.81-11.213-9.275l-15.824,1.496   C285.082,21.074,280.929,26.094,281.464,31.752z M181.924,68.308l24.119,46.526c2.615,5.045,8.826,7.015,13.872,4.399l14.111-7.314   c5.045-2.616,7.015-8.826,4.399-13.872l-24.119-46.526c-2.615-5.045-8.826-7.015-13.872-4.399l-14.111,7.315   C181.278,57.051,179.309,63.262,181.924,68.308z" transform="matrix(0.03049810230731964 0.04457414895296097 -0.04457414895296097 0.03049810230731964 16.719696044921875 87.65286254882812)" id="L1_4"/><path d="M550.4,281.817c-18.385,20.637-36.395,42.868-48.965,73.54c-5.721,14.164-19.322,23.357-34.613,23.357   c-15.383,0-28.984-9.193-34.799-23.45c-14.541-35.646-36.584-59.939-57.971-83.39c-5.346-5.909-10.693-11.819-15.945-17.916   c-0.281,0.094-0.471,0.188-0.75,0.281c-20.824,6.284-36.865,33.862-27.203,56.281c6.566,15.383,52.623,12.476,48.684,45.587   c-3.283,27.108,32.172,34.237,44.742,32.925c12.57-1.501,31.893,20.637,22.137,30.392c-9.66,9.756-27.953,10.131-25.139,35.27   c0.75,7.316,22.889,6.379,22.889,17.447c0,11.162-11.443,23.826-2.627,36.677c1.877,2.813,3.846,4.971,5.91,6.659   c-42.398,39.022-98.961,62.941-160.964,62.941c-131.041,0-237.6-106.559-237.6-237.6c0-39.771,9.85-77.293,27.203-110.311   c-0.094,42.68,22.7,78.137,33.393,88.83c34.894,34.8,85.454,23.825,91.925,52.997c6.566,29.079-34.707,29.173-31.986,51.403   c2.813,22.325,56.562,28.235,44.556,48.777c-15.853,27.296,10.693,29.266,3.002,62.94c-4.127,18.386,22.418,21.95,32.268,7.974   c7.504-10.693,6.003-23.826,21.105-39.865c18.479-19.699,61.347-22.888,56.562-55.438c-8.16-54.029-60.689-62.472-83.577-75.136   c-25.983-14.257-19.604-48.495-25.233-64.816c-7.879-23.169-34.613,6.473-48.871-7.035c-23.45-22.137,4.221-53.467,23.919-52.81   c41.554,1.313,54.311,41.742,69.6,40.334c14.915-1.313,24.577-22.137,27.203-33.205c5.535-24.107-9.38-13.32-15.383-25.89   c-8.067-16.79,28.328-32.83,42.398-45.212c2.158-1.876,3.752-3.658,4.596-5.347c4.223-8.254-1.312-14.539-10.693-20.261   c-18.759-11.351-52.997-20.355-54.591-38.083c-0.939-10.882,19.886-16.134,43.617-17.072c3.939,0.188,7.785,0.563,11.726,0.938   c1.969-11.163,5.158-22.138,9.473-32.643c-11.35-1.501-22.887-2.252-34.613-2.252c-149.52,0-271.18,121.66-271.18,271.18   C14.604,490.34,136.265,612,285.785,612c149.52,0,271.182-121.661,271.182-271.181C556.967,320.558,554.715,300.766,550.4,281.817z    M454.062,0.603C377.51,7.839,325.078,82.016,338.439,157.741c13.568,76.921,84.49,100.598,119.686,186.942   c3.172,7.781,14.127,7.82,17.297,0.038c39.016-95.766,121.975-114.455,121.975-214.106C597.396,54.282,531.916-6.756,454.062,0.603   z M466.781,199.593c-38.096,0-68.979-30.882-68.979-68.978c0-38.095,30.883-68.977,68.979-68.977s68.977,30.882,68.977,68.977   S504.875,199.593,466.781,199.593z" transform="matrix(0.06153127923607826 -0.042598575353622437 0.042598575353622437 0.06153127923607826 18.13629150390625 252.2066192626953)" id="L1_5"/><path d="M305.016,224.064v252.192l200.778-38.103V315.277c0-5.144,4.48-9.139,9.59-8.553l24.701,3.822   c4.346,0.499,7.627,4.178,7.627,8.553v142.748c0,4.058-2.833,7.564-6.8,8.417l-219.787,47.258   c-10.621,2.283-21.604,2.308-32.235,0.072L71.462,471.859c-3.902-0.82-6.73-4.214-6.834-8.201l-3.756-144.974   c-0.118-4.547,3.322-8.4,7.852-8.798l184.692-16.229c3.203-0.281,5.982-2.325,7.207-5.297l27.824-67.573   C292.037,212.067,305.016,214.635,305.016,224.064z M58.783,141.494L0.825,265.38c-2.832,6.054,2.014,12.885,8.663,12.213   L227.149,255.6c3.076-0.311,5.749-2.247,7.003-5.073l70.035-157.78L65.026,136.675C62.289,137.178,59.963,138.973,58.783,141.494z    M304.188,92.747l74.106,162.712c1.295,2.844,4.029,4.762,7.145,5.013l217.25,17.471c6.547,0.526,11.248-6.178,8.522-12.154   l-56.658-124.212c-1.172-2.569-3.528-4.399-6.308-4.9L304.188,92.747z" transform="matrix(0.07771812379360199 0.03483915701508522 -0.03483915701508522 0.07771812379360199 261.88909912109375 -6.436668872833252)" id="L1_6"/></defs><g fi:class="KUsePattern"><pattern id="pattern_L1_0" width="350" height="350" patternUnits="userSpaceOnUse"><use xlink:href="#L1_0" x="-350" y="-350"/><use xlink:href="#L1_0" x="0" y="-350"/><use xlink:href="#L1_0" x="350" y="-350"/><use xlink:href="#L1_0" x="-350" y="0"/><use xlink:href="#L1_0" x="0" y="0"/><use xlink:href="#L1_0" x="350" y="0"/><use xlink:href="#L1_0" x="-350" y="350"/><use xlink:href="#L1_0" x="0" y="350"/><use xlink:href="#L1_0" x="350" y="350"/></pattern><rect x="0" y="0" width="100%" height="100%" fill="url(#pattern_L1_0)"/></g><g fi:class="KUsePattern"><pattern id="pattern_L1_1" width="350" height="350" patternUnits="userSpaceOnUse"><use xlink:href="#L1_1" x="-350" y="-350"/><use xlink:href="#L1_1" x="0" y="-350"/><use xlink:href="#L1_1" x="350" y="-350"/><use xlink:href="#L1_1" x="-350" y="0"/><use xlink:href="#L1_1" x="0" y="0"/><use xlink:href="#L1_1" x="350" y="0"/><use xlink:href="#L1_1" x="-350" y="350"/><use xlink:href="#L1_1" x="0" y="350"/><use xlink:href="#L1_1" x="350" y="350"/></pattern><rect x="0" y="0" width="100%" height="100%" fill="url(#pattern_L1_1)"/></g><g fi:class="KUsePattern"><pattern id="pattern_L1_2" width="350" height="350" patternUnits="userSpaceOnUse"><use xlink:href="#L1_2" x="-350" y="-350"/><use xlink:href="#L1_2" x="0" y="-350"/><use xlink:href="#L1_2" x="350" y="-350"/><use xlink:href="#L1_2" x="-350" y="0"/><use xlink:href="#L1_2" x="0" y="0"/><use xlink:href="#L1_2" x="350" y="0"/><use xlink:href="#L1_2" x="-350" y="350"/><use xlink:href="#L1_2" x="0" y="350"/><use xlink:href="#L1_2" x="350" y="350"/></pattern><rect x="0" y="0" width="100%" height="100%" fill="url(#pattern_L1_2)"/></g><g fi:class="KUsePattern"><pattern id="pattern_L1_3" width="350" height="350" patternUnits="userSpaceOnUse"><use xlink:href="#L1_3" x="-350" y="-350"/><use xlink:href="#L1_3" x="0" y="-350"/><use xlink:href="#L1_3" x="350" y="-350"/><use xlink:href="#L1_3" x="-350" y="0"/><use xlink:href="#L1_3" x="0" y="0"/><use xlink:href="#L1_3" x="350" y="0"/><use xlink:href="#L1_3" x="-350" y="350"/><use xlink:href="#L1_3" x="0" y="350"/><use xlink:href="#L1_3" x="350" y="350"/></pattern><rect x="0" y="0" width="100%" height="100%" fill="url(#pattern_L1_3)"/></g><g fi:class="KUsePattern"><pattern id="pattern_L1_4" width="350" height="350" patternUnits="userSpaceOnUse"><use xlink:href="#L1_4" x="-350" y="-350"/><use xlink:href="#L1_4" x="0" y="-350"/><use xlink:href="#L1_4" x="350" y="-350"/><use xlink:href="#L1_4" x="-350" y="0"/><use xlink:href="#L1_4" x="0" y="0"/><use xlink:href="#L1_4" x="350" y="0"/><use xlink:href="#L1_4" x="-350" y="350"/><use xlink:href="#L1_4" x="0" y="350"/><use xlink:href="#L1_4" x="350" y="350"/></pattern><rect x="0" y="0" width="100%" height="100%" fill="url(#pattern_L1_4)"/></g><g fi:class="KUsePattern"><pattern id="pattern_L1_5" width="350" height="350" patternUnits="userSpaceOnUse"><use xlink:href="#L1_5" x="-350" y="-350"/><use xlink:href="#L1_5" x="0" y="-350"/><use xlink:href="#L1_5" x="350" y="-350"/><use xlink:href="#L1_5" x="-350" y="0"/><use xlink:href="#L1_5" x="0" y="0"/><use xlink:href="#L1_5" x="350" y="0"/><use xlink:href="#L1_5" x="-350" y="350"/><use xlink:href="#L1_5" x="0" y="350"/><use xlink:href="#L1_5" x="350" y="350"/></pattern><rect x="0" y="0" width="100%" height="100%" fill="url(#pattern_L1_5)"/></g><g fi:class="KUsePattern"><pattern id="pattern_L1_6" width="350" height="350" patternUnits="userSpaceOnUse"><use xlink:href="#L1_6" x="-350" y="-350"/><use xlink:href="#L1_6" x="0" y="-350"/><use xlink:href="#L1_6" x="350" y="-350"/><use xlink:href="#L1_6" x="-350" y="0"/><use xlink:href="#L1_6" x="0" y="0"/><use xlink:href="#L1_6" x="350" y="0"/><use xlink:href="#L1_6" x="-350" y="350"/><use xlink:href="#L1_6" x="0" y="350"/><use xlink:href="#L1_6" x="350" y="350"/></pattern><rect x="0" y="0" width="100%" height="100%" fill="url(#pattern_L1_6)"/></g></svg>